<?xml version="1.0" encoding="UTF-8"?>
<svg width="400" height="400" viewBox="0 0 400 400" fill="none" xmlns="http://www.w3.org/2000/svg">
  <rect width="400" height="400" fill="#F3F4F6" />
  <path
    d="M200 150C188.954 150 180 158.954 180 170C180 181.046 188.954 190 200 190C211.046 190 220 181.046 220 170C220 158.954 211.046 150 200 150ZM200 180C195.582 180 192 176.418 192 172C192 167.582 195.582 164 200 164C204.418 164 208 167.582 208 172C208 176.418 204.418 180 200 180Z"
    fill="#9CA3AF" />
  <path
    d="M200 200C177.909 200 160 217.909 160 240H240C240 217.909 222.091 200 200 200ZM200 220C211.046 220 220 228.954 220 240H180C180 228.954 188.954 220 200 220Z"
    fill="#9CA3AF" />
  <path d="M140 120H260V130H140V120Z" fill="#9CA3AF" />
  <path d="M140 250H260V260H140V250Z" fill="#9CA3AF" />
</svg>